<svg xmlns="http://www.w3.org/2000/svg" xmlns:xlink="http://www.w3.org/1999/xlink" width="500" zoomAndPan="magnify" viewBox="0 0 375 374.999991" height="500" preserveAspectRatio="xMidYMid meet" version="1.0"><defs><g/></defs><path fill="#848def" d="M 104.777344 27.179688 L 315.777344 27.179688 C 316.746094 27.179688 317.714844 27.230469 318.683594 27.324219 C 319.648438 27.417969 320.609375 27.5625 321.5625 27.75 C 322.511719 27.941406 323.453125 28.175781 324.382812 28.457031 C 325.3125 28.738281 326.226562 29.066406 327.121094 29.4375 C 328.019531 29.808594 328.898438 30.226562 329.753906 30.683594 C 330.609375 31.140625 331.441406 31.640625 332.25 32.179688 C 333.054688 32.71875 333.835938 33.296875 334.585938 33.910156 C 335.335938 34.527344 336.054688 35.179688 336.742188 35.867188 C 337.429688 36.550781 338.078125 37.269531 338.695312 38.023438 C 339.3125 38.773438 339.890625 39.550781 340.429688 40.359375 C 340.96875 41.164062 341.46875 41.996094 341.925781 42.855469 C 342.382812 43.710938 342.796875 44.585938 343.167969 45.484375 C 343.539062 46.382812 343.867188 47.292969 344.148438 48.222656 C 344.429688 49.152344 344.667969 50.09375 344.855469 51.046875 C 345.046875 52 345.1875 52.957031 345.28125 53.925781 C 345.378906 54.890625 345.425781 55.859375 345.425781 56.832031 L 345.425781 162.179688 C 345.425781 163.148438 345.378906 164.117188 345.28125 165.085938 C 345.1875 166.050781 345.046875 167.011719 344.855469 167.960938 C 344.667969 168.914062 344.429688 169.855469 344.148438 170.785156 C 343.867188 171.714844 343.539062 172.628906 343.167969 173.523438 C 342.796875 174.421875 342.382812 175.296875 341.925781 176.15625 C 341.46875 177.011719 340.96875 177.84375 340.429688 178.652344 C 339.890625 179.457031 339.3125 180.238281 338.695312 180.988281 C 338.078125 181.738281 337.429688 182.457031 336.742188 183.144531 C 336.054688 183.832031 335.335938 184.480469 334.585938 185.097656 C 333.835938 185.714844 333.054688 186.292969 332.25 186.832031 C 331.441406 187.371094 330.609375 187.867188 329.753906 188.328125 C 328.898438 188.785156 328.019531 189.199219 327.121094 189.570312 C 326.226562 189.941406 325.3125 190.269531 324.382812 190.550781 C 323.453125 190.832031 322.511719 191.070312 321.5625 191.257812 C 320.609375 191.449219 319.648438 191.589844 318.683594 191.683594 C 317.714844 191.78125 316.746094 191.828125 315.777344 191.828125 L 104.777344 191.828125 C 103.808594 191.828125 102.839844 191.78125 101.871094 191.683594 C 100.90625 191.589844 99.945312 191.449219 98.992188 191.257812 C 98.042969 191.070312 97.101562 190.832031 96.171875 190.550781 C 95.242188 190.269531 94.328125 189.941406 93.433594 189.570312 C 92.535156 189.199219 91.65625 188.785156 90.800781 188.328125 C 89.945312 187.867188 89.113281 187.371094 88.304688 186.832031 C 87.5 186.292969 86.71875 185.714844 85.96875 185.097656 C 85.21875 184.480469 84.5 183.832031 83.8125 183.144531 C 83.125 182.457031 82.476562 181.738281 81.859375 180.988281 C 81.242188 180.238281 80.664062 179.457031 80.125 178.652344 C 79.585938 177.84375 79.085938 177.011719 78.628906 176.15625 C 78.171875 175.296875 77.757812 174.421875 77.386719 173.523438 C 77.015625 172.628906 76.6875 171.714844 76.40625 170.785156 C 76.125 169.855469 75.886719 168.914062 75.699219 167.960938 C 75.507812 167.011719 75.367188 166.050781 75.273438 165.085938 C 75.175781 164.117188 75.128906 163.148438 75.128906 162.179688 L 75.128906 56.832031 C 75.128906 55.859375 75.175781 54.890625 75.273438 53.925781 C 75.367188 52.957031 75.507812 52 75.699219 51.046875 C 75.886719 50.09375 76.125 49.152344 76.40625 48.222656 C 76.6875 47.292969 77.015625 46.382812 77.386719 45.484375 C 77.757812 44.585938 78.171875 43.710938 78.628906 42.855469 C 79.085938 41.996094 79.585938 41.164062 80.125 40.359375 C 80.664062 39.550781 81.242188 38.773438 81.859375 38.023438 C 82.476562 37.269531 83.125 36.550781 83.8125 35.867188 C 84.5 35.179688 85.21875 34.527344 85.96875 33.910156 C 86.71875 33.296875 87.5 32.71875 88.304688 32.179688 C 89.113281 31.640625 89.945312 31.140625 90.800781 30.683594 C 91.65625 30.226562 92.535156 29.808594 93.433594 29.4375 C 94.328125 29.066406 95.242188 28.738281 96.171875 28.457031 C 97.101562 28.175781 98.042969 27.941406 98.992188 27.75 C 99.945312 27.5625 100.90625 27.417969 101.871094 27.324219 C 102.839844 27.230469 103.808594 27.179688 104.777344 27.179688 Z M 104.777344 27.179688 " fill-opacity="1" fill-rule="nonzero"/><path fill="#848def" d="M 144.34375 232.257812 L 163.554688 189.507812 L 111.875 189.507812 L 131.085938 232.257812 C 133.65625 237.96875 141.765625 237.96875 144.335938 232.257812 Z M 144.34375 232.257812 " fill-opacity="1" fill-rule="nonzero"/><path fill="#ffffff" d="M 210.277344 51.171875 C 178.109375 51.171875 151.941406 77.339844 151.941406 109.507812 C 151.941406 141.675781 178.109375 167.84375 210.277344 167.84375 C 242.445312 167.84375 268.613281 141.675781 268.613281 109.507812 C 268.613281 77.339844 242.445312 51.171875 210.277344 51.171875 Z M 244.777344 109.507812 C 244.777344 112.273438 244.636719 115.007812 244.359375 117.691406 C 239.117188 118.75 233.1875 119.550781 226.839844 120.054688 C 227.007812 116.609375 227.089844 113.085938 227.089844 109.507812 C 227.089844 105.929688 227.007812 102.40625 226.839844 98.960938 C 233.1875 99.464844 239.109375 100.265625 244.359375 101.324219 C 244.636719 104.007812 244.777344 106.742188 244.777344 109.507812 Z M 175.773438 109.507812 C 175.773438 106.742188 175.910156 104.007812 176.1875 101.324219 C 181.433594 100.265625 187.363281 99.464844 193.707031 98.960938 C 193.542969 102.40625 193.457031 105.929688 193.457031 109.507812 C 193.457031 113.085938 193.542969 116.609375 193.707031 120.054688 C 187.363281 119.550781 181.4375 118.753906 176.1875 117.691406 C 175.910156 115.007812 175.773438 112.273438 175.773438 109.507812 Z M 199.082031 109.507812 C 199.082031 105.796875 199.175781 102.140625 199.351562 98.589844 C 202.90625 98.414062 206.5625 98.320312 210.269531 98.320312 C 213.980469 98.320312 217.636719 98.414062 221.1875 98.589844 C 221.367188 102.140625 221.457031 105.796875 221.457031 109.507812 C 221.457031 113.21875 221.367188 116.875 221.1875 120.425781 C 217.636719 120.601562 213.980469 120.695312 210.269531 120.695312 C 206.5625 120.695312 202.90625 120.601562 199.351562 120.425781 C 199.175781 116.875 199.082031 113.21875 199.082031 109.507812 Z M 226.492188 93.285156 C 225.820312 84.429688 224.601562 76.308594 222.902344 69.558594 C 221.769531 65.066406 220.476562 61.390625 219.027344 58.53125 C 224.71875 60.824219 229.972656 65.351562 234.320312 71.8125 C 238.78125 78.449219 241.917969 86.558594 243.523438 95.421875 C 238.332031 94.460938 232.585938 93.742188 226.492188 93.28125 Z M 217.445312 70.9375 C 219.019531 77.191406 220.167969 84.714844 220.820312 92.9375 C 217.375 92.773438 213.847656 92.6875 210.269531 92.6875 C 206.691406 92.6875 203.167969 92.773438 199.722656 92.9375 C 200.375 84.714844 201.519531 77.191406 203.09375 70.9375 C 206.019531 59.339844 209.261719 56.804688 210.269531 56.804688 C 211.277344 56.804688 214.519531 59.339844 217.445312 70.9375 Z M 201.515625 58.53125 C 200.066406 61.382812 198.773438 65.058594 197.640625 69.558594 C 195.941406 76.308594 194.722656 84.429688 194.050781 93.285156 C 187.953125 93.746094 182.210938 94.464844 177.015625 95.429688 C 178.625 86.566406 181.761719 78.457031 186.222656 71.820312 C 190.570312 65.351562 195.820312 60.832031 201.515625 58.539062 Z M 170.410156 116.339844 C 159.914062 113.507812 157.5625 110.46875 157.5625 109.507812 C 157.5625 108.546875 159.914062 105.507812 170.410156 102.675781 C 170.230469 104.929688 170.136719 107.207031 170.136719 109.507812 C 170.136719 111.808594 170.230469 114.085938 170.410156 116.339844 Z M 194.050781 125.722656 C 194.722656 134.578125 195.941406 142.703125 197.640625 149.449219 C 198.773438 153.941406 200.066406 157.617188 201.515625 160.476562 C 195.820312 158.1875 190.570312 153.660156 186.222656 147.195312 C 181.761719 140.5625 178.625 132.449219 177.015625 123.589844 C 182.210938 124.550781 187.953125 125.269531 194.050781 125.730469 Z M 203.09375 148.070312 C 201.519531 141.820312 200.375 134.292969 199.722656 126.070312 C 203.167969 126.238281 206.691406 126.324219 210.269531 126.324219 C 213.847656 126.324219 217.375 126.238281 220.820312 126.070312 C 220.167969 134.292969 219.019531 141.820312 217.445312 148.070312 C 214.519531 159.667969 211.277344 162.203125 210.269531 162.203125 C 209.261719 162.203125 206.019531 159.667969 203.09375 148.070312 Z M 219.027344 160.476562 C 220.476562 157.625 221.769531 153.949219 222.902344 149.449219 C 224.601562 142.703125 225.820312 134.578125 226.492188 125.722656 C 232.585938 125.261719 238.332031 124.542969 243.523438 123.582031 C 241.917969 132.441406 238.78125 140.554688 234.320312 147.1875 C 229.972656 153.660156 224.71875 158.179688 219.027344 160.472656 Z M 250.132812 102.667969 C 260.628906 105.5 262.980469 108.539062 262.980469 109.5 C 262.980469 110.464844 260.628906 113.5 250.132812 116.332031 C 250.308594 114.082031 250.402344 111.800781 250.402344 109.5 C 250.402344 107.203125 250.308594 104.921875 250.132812 102.667969 Z M 262.347656 101.335938 C 259.363281 99.652344 255.316406 98.160156 250.226562 96.878906 C 249.96875 96.8125 249.703125 96.753906 249.449219 96.6875 C 247.847656 86.183594 244.269531 76.519531 239.003906 68.675781 C 237.480469 66.417969 235.863281 64.367188 234.148438 62.523438 C 248.925781 70.0625 259.707031 84.371094 262.355469 101.335938 Z M 186.414062 62.523438 C 184.699219 64.367188 183.074219 66.417969 181.558594 68.675781 C 176.285156 76.519531 172.714844 86.175781 171.113281 96.6875 C 170.851562 96.753906 170.59375 96.8125 170.335938 96.878906 C 165.238281 98.160156 161.199219 99.652344 158.214844 101.335938 C 160.863281 84.371094 171.640625 70.0625 186.417969 62.523438 Z M 158.207031 117.679688 C 161.191406 119.363281 165.238281 120.855469 170.328125 122.136719 C 170.585938 122.203125 170.851562 122.265625 171.105469 122.328125 C 172.707031 132.832031 176.285156 142.496094 181.550781 150.339844 C 183.066406 152.597656 184.691406 154.648438 186.40625 156.492188 C 171.628906 148.953125 160.847656 134.644531 158.199219 117.679688 Z M 234.140625 156.492188 C 235.855469 154.648438 237.480469 152.597656 238.996094 150.339844 C 244.269531 142.496094 247.839844 132.839844 249.441406 122.328125 C 249.703125 122.265625 249.960938 122.203125 250.21875 122.136719 C 255.316406 120.855469 259.355469 119.363281 262.339844 117.679688 C 259.691406 134.644531 248.914062 148.953125 234.136719 156.492188 Z M 234.140625 156.492188 " fill-opacity="1" fill-rule="nonzero"/><path fill="#ffffff" d="M 157.996094 163.082031 C 157.625 163.082031 157.25 162.988281 156.910156 162.804688 C 137.339844 152.175781 125.183594 131.75 125.183594 109.5 C 125.183594 87.25 137.753906 66.09375 157.980469 55.625 C 159.101562 55.046875 160.484375 55.488281 161.066406 56.605469 C 161.644531 57.726562 161.210938 59.109375 160.085938 59.691406 C 141.378906 69.371094 129.757812 88.457031 129.757812 109.5 C 129.757812 130.546875 140.996094 148.953125 159.089844 158.785156 C 160.203125 159.390625 160.609375 160.773438 160.003906 161.886719 C 159.589844 162.652344 158.804688 163.085938 157.996094 163.085938 Z M 157.996094 163.082031 " fill-opacity="1" fill-rule="nonzero"/><path fill="#ffffff" d="M 262.558594 163.082031 C 261.75 163.082031 260.957031 162.644531 260.550781 161.882812 C 259.941406 160.769531 260.359375 159.382812 261.464844 158.777344 C 279.558594 148.949219 290.796875 130.066406 290.796875 109.496094 C 290.796875 88.925781 279.175781 69.363281 260.46875 59.683594 C 259.351562 59.105469 258.910156 57.71875 259.488281 56.601562 C 260.070312 55.480469 261.453125 55.039062 262.570312 55.617188 C 282.804688 66.089844 295.371094 86.730469 295.371094 109.496094 C 295.371094 132.257812 283.214844 152.171875 263.644531 162.796875 C 263.296875 162.988281 262.929688 163.074219 262.558594 163.074219 Z M 262.558594 163.082031 " fill-opacity="1" fill-rule="nonzero"/><path fill="#ffffff" d="M 299.734375 151.894531 C 299.398438 151.894531 299.0625 151.800781 298.757812 151.609375 C 297.902344 151.070312 297.644531 149.941406 298.183594 149.085938 C 304.898438 138.4375 308.59375 124.378906 308.59375 109.5 C 308.59375 93.667969 304.273438 78.441406 296.734375 67.734375 C 296.15625 66.910156 296.351562 65.765625 297.175781 65.183594 C 298 64.605469 299.144531 64.804688 299.726562 65.625 C 307.691406 76.941406 312.257812 92.929688 312.257812 109.5 C 312.257812 125.0625 308.363281 139.816406 301.289062 151.035156 C 300.9375 151.589844 300.34375 151.894531 299.738281 151.894531 Z M 299.734375 151.894531 " fill-opacity="1" fill-rule="nonzero"/><path fill="#ffffff" d="M 120.820312 151.894531 C 120.214844 151.894531 119.621094 151.589844 119.273438 151.035156 C 112.195312 139.816406 108.304688 125.0625 108.304688 109.5 C 108.304688 92.929688 112.871094 76.941406 120.835938 65.625 C 121.414062 64.796875 122.5625 64.597656 123.386719 65.183594 C 124.207031 65.773438 124.414062 66.910156 123.828125 67.734375 C 116.289062 78.441406 111.964844 93.667969 111.964844 109.5 C 111.964844 124.378906 115.664062 138.4375 122.375 149.085938 C 122.917969 149.941406 122.660156 151.070312 121.804688 151.609375 C 121.5 151.800781 121.164062 151.894531 120.828125 151.894531 Z M 120.820312 151.894531 " fill-opacity="1" fill-rule="nonzero"/><g fill="#848def" fill-opacity="1"><g transform="translate(77.018716, 289.438315)"><g><path d="M 22.90625 -35.515625 L 22.90625 -28.40625 L 10.671875 -28.40625 L 10.671875 -21.34375 L 22.390625 -21.34375 L 22.390625 -14.25 L 10.671875 -14.25 L 10.671875 -7.109375 L 22.90625 -7.109375 L 22.90625 0 L 2.578125 0 L 2.578125 -35.515625 Z M 22.90625 -35.515625 "/></g></g></g><g fill="#848def" fill-opacity="1"><g transform="translate(101.979438, 289.438315)"><g><path d="M 10.671875 -22.046875 L 10.671875 0 L 2.578125 0 L 2.578125 -35.515625 L 10.671875 -35.515625 L 24.796875 -13.46875 L 24.875 -13.46875 L 24.875 -35.515625 L 32.96875 -35.515625 L 32.96875 0 L 24.875 0 L 10.765625 -22.046875 Z M 10.671875 -22.046875 "/></g></g></g><g fill="#848def" fill-opacity="1"><g transform="translate(137.526933, 289.438315)"><g><path d="M 34.703125 -19.890625 L 34.703125 -12.1875 C 33.773438 -7.96875 31.757812 -4.773438 28.65625 -2.609375 C 25.5625 -0.441406 22.109375 0.640625 18.296875 0.640625 C 13.503906 0.640625 9.421875 -1.148438 6.046875 -4.734375 C 2.671875 -8.316406 0.984375 -12.648438 0.984375 -17.734375 C 0.984375 -22.898438 2.632812 -27.257812 5.9375 -30.8125 C 9.238281 -34.375 13.359375 -36.15625 18.296875 -36.15625 C 24.066406 -36.15625 28.628906 -34.132812 31.984375 -30.09375 L 26.6875 -24.28125 C 24.789062 -27.320312 22.148438 -28.84375 18.765625 -28.84375 C 16.265625 -28.84375 14.132812 -27.757812 12.375 -25.59375 C 10.613281 -23.425781 9.734375 -20.804688 9.734375 -17.734375 C 9.734375 -14.722656 10.613281 -12.144531 12.375 -10 C 14.132812 -7.863281 16.265625 -6.796875 18.765625 -6.796875 C 20.835938 -6.796875 22.640625 -7.421875 24.171875 -8.671875 C 25.703125 -9.921875 26.46875 -11.578125 26.46875 -13.640625 L 18.296875 -13.640625 L 18.296875 -19.890625 Z M 34.703125 -19.890625 "/></g></g></g><g fill="#848def" fill-opacity="1"><g transform="translate(173.203545, 289.438315)"><g><path d="M 10.671875 -35.515625 L 10.671875 -7.109375 L 22.90625 -7.109375 L 22.90625 0 L 2.578125 0 L 2.578125 -35.515625 Z M 10.671875 -35.515625 "/></g></g></g><g fill="#848def" fill-opacity="1"><g transform="translate(197.518729, 289.438315)"><g><path d="M 10.671875 -35.515625 L 10.671875 0 L 2.578125 0 L 2.578125 -35.515625 Z M 10.671875 -35.515625 "/></g></g></g><g fill="#848def" fill-opacity="1"><g transform="translate(210.773737, 289.438315)"><g><path d="M 15.671875 -36.15625 C 17.585938 -36.15625 19.460938 -35.875 21.296875 -35.3125 C 23.140625 -34.757812 24.503906 -34.207031 25.390625 -33.65625 L 26.6875 -32.796875 L 23.421875 -26.34375 C 23.160156 -26.519531 22.800781 -26.742188 22.34375 -27.015625 C 21.882812 -27.285156 21.019531 -27.648438 19.75 -28.109375 C 18.488281 -28.566406 17.316406 -28.796875 16.234375 -28.796875 C 14.878906 -28.796875 13.835938 -28.507812 13.109375 -27.9375 C 12.378906 -27.363281 12.015625 -26.585938 12.015625 -25.609375 C 12.015625 -25.117188 12.1875 -24.664062 12.53125 -24.25 C 12.875 -23.832031 13.460938 -23.390625 14.296875 -22.921875 C 15.128906 -22.453125 15.859375 -22.070312 16.484375 -21.78125 C 17.117188 -21.488281 18.097656 -21.054688 19.421875 -20.484375 C 21.710938 -19.515625 23.664062 -18.1875 25.28125 -16.5 C 26.90625 -14.820312 27.71875 -12.925781 27.71875 -10.8125 C 27.71875 -8.769531 27.351562 -6.988281 26.625 -5.46875 C 25.894531 -3.945312 24.890625 -2.753906 23.609375 -1.890625 C 22.335938 -1.035156 20.925781 -0.398438 19.375 0.015625 C 17.820312 0.429688 16.140625 0.640625 14.328125 0.640625 C 12.785156 0.640625 11.265625 0.484375 9.765625 0.171875 C 8.273438 -0.140625 7.023438 -0.53125 6.015625 -1 C 5.015625 -1.476562 4.113281 -1.945312 3.3125 -2.40625 C 2.507812 -2.863281 1.921875 -3.253906 1.546875 -3.578125 L 0.984375 -4.046875 L 5.03125 -10.84375 C 5.375 -10.5625 5.847656 -10.195312 6.453125 -9.75 C 7.054688 -9.300781 8.125 -8.703125 9.65625 -7.953125 C 11.195312 -7.210938 12.554688 -6.84375 13.734375 -6.84375 C 17.148438 -6.84375 18.859375 -8.003906 18.859375 -10.328125 C 18.859375 -10.816406 18.734375 -11.269531 18.484375 -11.6875 C 18.242188 -12.101562 17.8125 -12.519531 17.1875 -12.9375 C 16.570312 -13.351562 16.023438 -13.679688 15.546875 -13.921875 C 15.078125 -14.171875 14.304688 -14.546875 13.234375 -15.046875 C 12.160156 -15.546875 11.363281 -15.925781 10.84375 -16.1875 C 8.695312 -17.25 7.035156 -18.578125 5.859375 -20.171875 C 4.679688 -21.765625 4.09375 -23.476562 4.09375 -25.3125 C 4.09375 -28.5 5.269531 -31.101562 7.625 -33.125 C 9.976562 -35.144531 12.660156 -36.15625 15.671875 -36.15625 Z M 15.671875 -36.15625 "/></g></g></g><g fill="#848def" fill-opacity="1"><g transform="translate(239.693736, 289.438315)"><g><path d="M 10.671875 -14.25 L 10.671875 0 L 2.578125 0 L 2.578125 -35.515625 L 10.671875 -35.515625 L 10.671875 -21.34375 L 22.125 -21.34375 L 22.125 -35.515625 L 30.21875 -35.515625 L 30.21875 0 L 22.125 0 L 22.125 -14.25 Z M 10.671875 -14.25 "/></g></g></g><g fill="#848def" fill-opacity="1"><g transform="translate(272.486945, 289.438315)"><g/></g></g><g fill="#848def" fill-opacity="1"><g transform="translate(284.235692, 289.438315)"><g><path d="M 23.984375 -14.59375 L 28.109375 -14.59375 L 28.109375 -7.484375 L 23.984375 -7.484375 L 23.984375 0 L 16.40625 0 L 16.40625 -7.484375 L -1.078125 -7.484375 L -1.078125 -9.90625 L 15.96875 -35.515625 L 23.984375 -35.515625 Z M 16.40625 -24.703125 L 16.3125 -24.703125 L 9.984375 -14.59375 L 16.40625 -14.59375 Z M 16.40625 -24.703125 "/></g></g></g><g fill="#848def" fill-opacity="1"><g transform="translate(312.897473, 289.438315)"><g><path d="M 29.875 -35.515625 L 29.875 -12.609375 C 29.875 -8.242188 28.695312 -4.941406 26.34375 -2.703125 C 23.988281 -0.472656 20.546875 0.640625 16.015625 0.640625 C 11.484375 0.640625 8.039062 -0.472656 5.6875 -2.703125 C 3.332031 -4.941406 2.15625 -8.242188 2.15625 -12.609375 L 2.15625 -35.515625 L 10.25 -35.515625 L 10.25 -14.984375 C 10.25 -12.109375 10.695312 -10.109375 11.59375 -8.984375 C 12.5 -7.867188 13.96875 -7.3125 16 -7.3125 C 18.039062 -7.3125 19.515625 -7.867188 20.421875 -8.984375 C 21.328125 -10.109375 21.78125 -12.109375 21.78125 -14.984375 L 21.78125 -35.515625 Z M 29.875 -35.515625 "/></g></g></g><path stroke-linecap="round" transform="matrix(0, -0.75, 0.75, 0, 23.489391, 362.987261)" fill="none" stroke-linejoin="miter" d="M 14.998641 14.998521 L 433.764293 14.998521 " stroke="#848def" stroke-width="30" stroke-opacity="1" stroke-miterlimit="4"/><g fill="#848def" fill-opacity="1"><g transform="translate(119.399836, 321.755679)"><g><path d="M 17.109375 0 L 16.21875 -11.28125 L 16.09375 -11.28125 L 12.203125 -0.109375 L 9.609375 -0.109375 L 5.71875 -11.28125 L 5.609375 -11.28125 L 4.703125 0 L 0.375 0 L 2.078125 -19.03125 L 6.6875 -19.03125 L 10.90625 -8.046875 L 15.125 -19.03125 L 19.734375 -19.03125 L 21.453125 0 Z M 17.109375 0 "/></g></g></g><g fill="#848def" fill-opacity="1"><g transform="translate(141.218391, 321.755679)"><g><path d="M 2.1875 -1.46875 C 1.082031 -2.675781 0.53125 -4.15625 0.53125 -5.90625 C 0.53125 -7.65625 1.082031 -9.132812 2.1875 -10.34375 C 3.289062 -11.5625 4.695312 -12.171875 6.40625 -12.171875 C 7.976562 -12.171875 9.269531 -11.679688 10.28125 -10.703125 L 10.28125 -11.828125 L 14.375 -11.828125 L 14.375 0 L 10.328125 0 L 10.328125 -1.34375 L 10.28125 -1.34375 C 9.269531 -0.21875 7.976562 0.34375 6.40625 0.34375 C 4.695312 0.34375 3.289062 -0.257812 2.1875 -1.46875 Z M 5.65625 -7.90625 C 5.125 -7.382812 4.859375 -6.71875 4.859375 -5.90625 C 4.859375 -5.09375 5.113281 -4.425781 5.625 -3.90625 C 6.132812 -3.394531 6.804688 -3.140625 7.640625 -3.140625 C 8.429688 -3.140625 9.082031 -3.398438 9.59375 -3.921875 C 10.113281 -4.441406 10.375 -5.101562 10.375 -5.90625 C 10.375 -6.71875 10.109375 -7.382812 9.578125 -7.90625 C 9.046875 -8.425781 8.398438 -8.6875 7.640625 -8.6875 C 6.847656 -8.6875 6.1875 -8.425781 5.65625 -7.90625 Z M 5.65625 -7.90625 "/></g></g></g><g fill="#848def" fill-opacity="1"><g transform="translate(156.971117, 321.755679)"><g><path d="M 6.53125 -12.171875 C 7.207031 -12.171875 7.875 -12.09375 8.53125 -11.9375 C 9.195312 -11.789062 9.691406 -11.640625 10.015625 -11.484375 L 10.5 -11.25 L 9.15625 -8.578125 C 8.226562 -9.066406 7.351562 -9.3125 6.53125 -9.3125 C 6.0625 -9.3125 5.734375 -9.257812 5.546875 -9.15625 C 5.359375 -9.0625 5.265625 -8.878906 5.265625 -8.609375 C 5.265625 -8.546875 5.269531 -8.484375 5.28125 -8.421875 C 5.289062 -8.359375 5.316406 -8.300781 5.359375 -8.25 C 5.410156 -8.195312 5.457031 -8.148438 5.5 -8.109375 C 5.539062 -8.066406 5.601562 -8.019531 5.6875 -7.96875 C 5.78125 -7.925781 5.851562 -7.894531 5.90625 -7.875 C 5.96875 -7.851562 6.054688 -7.816406 6.171875 -7.765625 C 6.296875 -7.722656 6.390625 -7.691406 6.453125 -7.671875 C 6.515625 -7.648438 6.617188 -7.613281 6.765625 -7.5625 C 6.910156 -7.519531 7.023438 -7.488281 7.109375 -7.46875 C 7.578125 -7.332031 7.988281 -7.175781 8.34375 -7 C 8.695312 -6.832031 9.070312 -6.601562 9.46875 -6.3125 C 9.863281 -6.019531 10.164062 -5.648438 10.375 -5.203125 C 10.59375 -4.765625 10.703125 -4.257812 10.703125 -3.6875 C 10.703125 -1 8.832031 0.34375 5.09375 0.34375 C 4.25 0.34375 3.445312 0.210938 2.6875 -0.046875 C 1.925781 -0.304688 1.375 -0.566406 1.03125 -0.828125 L 0.53125 -1.25 L 2.1875 -4.03125 C 2.3125 -3.925781 2.472656 -3.800781 2.671875 -3.65625 C 2.867188 -3.507812 3.226562 -3.304688 3.75 -3.046875 C 4.28125 -2.796875 4.738281 -2.671875 5.125 -2.671875 C 5.96875 -2.671875 6.390625 -2.957031 6.390625 -3.53125 C 6.390625 -3.789062 6.28125 -3.992188 6.0625 -4.140625 C 5.851562 -4.285156 5.488281 -4.445312 4.96875 -4.625 C 4.457031 -4.8125 4.054688 -4.984375 3.765625 -5.140625 C 3.023438 -5.523438 2.4375 -5.957031 2 -6.4375 C 1.570312 -6.925781 1.359375 -7.570312 1.359375 -8.375 C 1.359375 -9.570312 1.820312 -10.503906 2.75 -11.171875 C 3.6875 -11.835938 4.945312 -12.171875 6.53125 -12.171875 Z M 6.53125 -12.171875 "/></g></g></g><g fill="#848def" fill-opacity="1"><g transform="translate(168.318618, 321.755679)"><g><path d="M 2.078125 -11.828125 L 2.078125 -16.234375 L 6.15625 -16.234375 L 6.15625 -11.828125 L 8.640625 -11.828125 L 8.640625 -8.71875 L 6.15625 -8.71875 L 6.15625 -4.953125 C 6.15625 -3.867188 6.460938 -3.328125 7.078125 -3.328125 C 7.234375 -3.328125 7.394531 -3.351562 7.5625 -3.40625 C 7.726562 -3.46875 7.859375 -3.53125 7.953125 -3.59375 L 8.09375 -3.6875 L 9.109375 -0.390625 C 8.234375 0.0976562 7.234375 0.34375 6.109375 0.34375 C 5.335938 0.34375 4.675781 0.207031 4.125 -0.0625 C 3.570312 -0.332031 3.148438 -0.691406 2.859375 -1.140625 C 2.578125 -1.597656 2.375 -2.078125 2.25 -2.578125 C 2.132812 -3.078125 2.078125 -3.609375 2.078125 -4.171875 L 2.078125 -8.71875 L 0.375 -8.71875 L 0.375 -11.828125 Z M 2.078125 -11.828125 "/></g></g></g><g fill="#848def" fill-opacity="1"><g transform="translate(177.428898, 321.755679)"><g><path d="M 13.359375 -5.34375 L 4.78125 -5.34375 C 4.78125 -4.519531 5.046875 -3.90625 5.578125 -3.5 C 6.117188 -3.101562 6.703125 -2.90625 7.328125 -2.90625 C 7.992188 -2.90625 8.519531 -2.992188 8.90625 -3.171875 C 9.289062 -3.347656 9.726562 -3.695312 10.21875 -4.21875 L 13.171875 -2.75 C 11.941406 -0.6875 9.894531 0.34375 7.03125 0.34375 C 5.25 0.34375 3.71875 -0.265625 2.4375 -1.484375 C 1.164062 -2.710938 0.53125 -4.1875 0.53125 -5.90625 C 0.53125 -7.625 1.164062 -9.097656 2.4375 -10.328125 C 3.71875 -11.554688 5.25 -12.171875 7.03125 -12.171875 C 8.90625 -12.171875 10.429688 -11.628906 11.609375 -10.546875 C 12.785156 -9.460938 13.375 -7.914062 13.375 -5.90625 C 13.375 -5.625 13.367188 -5.4375 13.359375 -5.34375 Z M 4.890625 -7.609375 L 9.390625 -7.609375 C 9.296875 -8.222656 9.050781 -8.695312 8.65625 -9.03125 C 8.269531 -9.363281 7.769531 -9.53125 7.15625 -9.53125 C 6.476562 -9.53125 5.9375 -9.351562 5.53125 -9 C 5.132812 -8.644531 4.921875 -8.179688 4.890625 -7.609375 Z M 4.890625 -7.609375 "/></g></g></g><g fill="#848def" fill-opacity="1"><g transform="translate(191.336506, 321.755679)"><g><path d="M 1.390625 0 L 1.390625 -11.828125 L 5.46875 -11.828125 L 5.46875 -10.125 L 5.515625 -10.125 C 5.546875 -10.1875 5.59375 -10.265625 5.65625 -10.359375 C 5.726562 -10.453125 5.878906 -10.613281 6.109375 -10.84375 C 6.335938 -11.070312 6.582031 -11.273438 6.84375 -11.453125 C 7.101562 -11.640625 7.441406 -11.804688 7.859375 -11.953125 C 8.273438 -12.097656 8.695312 -12.171875 9.125 -12.171875 C 9.570312 -12.171875 10.007812 -12.109375 10.4375 -11.984375 C 10.875 -11.867188 11.191406 -11.75 11.390625 -11.625 L 11.71875 -11.4375 L 10.015625 -7.984375 C 9.503906 -8.410156 8.796875 -8.625 7.890625 -8.625 C 7.398438 -8.625 6.976562 -8.515625 6.625 -8.296875 C 6.269531 -8.085938 6.019531 -7.828125 5.875 -7.515625 C 5.726562 -7.210938 5.625 -6.953125 5.5625 -6.734375 C 5.5 -6.515625 5.46875 -6.347656 5.46875 -6.234375 L 5.46875 0 Z M 1.390625 0 "/></g></g></g><g fill="#848def" fill-opacity="1"><g transform="translate(202.822382, 321.755679)"><g><path d="M 10.359375 -11.828125 L 15.0625 -11.828125 L 5.765625 6 L 1.0625 6 L 5.140625 -1.84375 L -0.46875 -11.828125 L 4.25 -11.828125 L 7.546875 -5.765625 Z M 10.359375 -11.828125 "/></g></g></g><g fill="#848def" fill-opacity="1"><g transform="translate(217.421911, 321.755679)"><g/></g></g><g fill="#848def" fill-opacity="1"><g transform="translate(223.718387, 321.755679)"><g><path d="M 11.515625 -3.921875 C 12.171875 -3.921875 12.8125 -4.019531 13.4375 -4.21875 C 14.0625 -4.414062 14.519531 -4.609375 14.8125 -4.796875 L 15.25 -5.09375 L 17.09375 -1.40625 C 17.03125 -1.363281 16.941406 -1.300781 16.828125 -1.21875 C 16.722656 -1.144531 16.472656 -1.003906 16.078125 -0.796875 C 15.691406 -0.585938 15.273438 -0.40625 14.828125 -0.25 C 14.378906 -0.09375 13.796875 0.0390625 13.078125 0.15625 C 12.359375 0.28125 11.613281 0.34375 10.84375 0.34375 C 9.070312 0.34375 7.394531 -0.0859375 5.8125 -0.953125 C 4.226562 -1.828125 2.953125 -3.023438 1.984375 -4.546875 C 1.015625 -6.066406 0.53125 -7.710938 0.53125 -9.484375 C 0.53125 -10.816406 0.8125 -12.097656 1.375 -13.328125 C 1.945312 -14.554688 2.707031 -15.609375 3.65625 -16.484375 C 4.601562 -17.359375 5.707031 -18.054688 6.96875 -18.578125 C 8.226562 -19.109375 9.519531 -19.375 10.84375 -19.375 C 12.070312 -19.375 13.203125 -19.226562 14.234375 -18.9375 C 15.273438 -18.644531 16.007812 -18.351562 16.4375 -18.0625 L 17.09375 -17.625 L 15.25 -13.9375 C 15.132812 -14.019531 14.96875 -14.125 14.75 -14.25 C 14.539062 -14.382812 14.113281 -14.5625 13.46875 -14.78125 C 12.820312 -15 12.171875 -15.109375 11.515625 -15.109375 C 10.460938 -15.109375 9.519531 -14.9375 8.6875 -14.59375 C 7.863281 -14.257812 7.207031 -13.816406 6.71875 -13.265625 C 6.238281 -12.710938 5.867188 -12.113281 5.609375 -11.46875 C 5.359375 -10.832031 5.234375 -10.1875 5.234375 -9.53125 C 5.234375 -8.082031 5.773438 -6.785156 6.859375 -5.640625 C 7.941406 -4.492188 9.492188 -3.921875 11.515625 -3.921875 Z M 11.515625 -3.921875 "/></g></g></g><g fill="#848def" fill-opacity="1"><g transform="translate(241.0856, 321.755679)"><g><path d="M 13.359375 -5.34375 L 4.78125 -5.34375 C 4.78125 -4.519531 5.046875 -3.90625 5.578125 -3.5 C 6.117188 -3.101562 6.703125 -2.90625 7.328125 -2.90625 C 7.992188 -2.90625 8.519531 -2.992188 8.90625 -3.171875 C 9.289062 -3.347656 9.726562 -3.695312 10.21875 -4.21875 L 13.171875 -2.75 C 11.941406 -0.6875 9.894531 0.34375 7.03125 0.34375 C 5.25 0.34375 3.71875 -0.265625 2.4375 -1.484375 C 1.164062 -2.710938 0.53125 -4.1875 0.53125 -5.90625 C 0.53125 -7.625 1.164062 -9.097656 2.4375 -10.328125 C 3.71875 -11.554688 5.25 -12.171875 7.03125 -12.171875 C 8.90625 -12.171875 10.429688 -11.628906 11.609375 -10.546875 C 12.785156 -9.460938 13.375 -7.914062 13.375 -5.90625 C 13.375 -5.625 13.367188 -5.4375 13.359375 -5.34375 Z M 4.890625 -7.609375 L 9.390625 -7.609375 C 9.296875 -8.222656 9.050781 -8.695312 8.65625 -9.03125 C 8.269531 -9.363281 7.769531 -9.53125 7.15625 -9.53125 C 6.476562 -9.53125 5.9375 -9.351562 5.53125 -9 C 5.132812 -8.644531 4.921875 -8.179688 4.890625 -7.609375 Z M 4.890625 -7.609375 "/></g></g></g><g fill="#848def" fill-opacity="1"><g transform="translate(254.993208, 321.755679)"><g><path d="M 1.390625 0 L 1.390625 -11.828125 L 5.46875 -11.828125 L 5.46875 -10.578125 L 5.515625 -10.578125 C 6.578125 -11.640625 7.707031 -12.171875 8.90625 -12.171875 C 9.488281 -12.171875 10.066406 -12.09375 10.640625 -11.9375 C 11.222656 -11.789062 11.773438 -11.554688 12.296875 -11.234375 C 12.828125 -10.910156 13.257812 -10.453125 13.59375 -9.859375 C 13.925781 -9.265625 14.09375 -8.578125 14.09375 -7.796875 L 14.09375 0 L 10.015625 0 L 10.015625 -6.6875 C 10.015625 -7.300781 9.816406 -7.835938 9.421875 -8.296875 C 9.023438 -8.765625 8.515625 -9 7.890625 -9 C 7.273438 -9 6.71875 -8.757812 6.21875 -8.28125 C 5.71875 -7.800781 5.46875 -7.269531 5.46875 -6.6875 L 5.46875 0 Z M 1.390625 0 "/></g></g></g><g fill="#848def" fill-opacity="1"><g transform="translate(270.238522, 321.755679)"><g><path d="M 2.078125 -11.828125 L 2.078125 -16.234375 L 6.15625 -16.234375 L 6.15625 -11.828125 L 8.640625 -11.828125 L 8.640625 -8.71875 L 6.15625 -8.71875 L 6.15625 -4.953125 C 6.15625 -3.867188 6.460938 -3.328125 7.078125 -3.328125 C 7.234375 -3.328125 7.394531 -3.351562 7.5625 -3.40625 C 7.726562 -3.46875 7.859375 -3.53125 7.953125 -3.59375 L 8.09375 -3.6875 L 9.109375 -0.390625 C 8.234375 0.0976562 7.234375 0.34375 6.109375 0.34375 C 5.335938 0.34375 4.675781 0.207031 4.125 -0.0625 C 3.570312 -0.332031 3.148438 -0.691406 2.859375 -1.140625 C 2.578125 -1.597656 2.375 -2.078125 2.25 -2.578125 C 2.132812 -3.078125 2.078125 -3.609375 2.078125 -4.171875 L 2.078125 -8.71875 L 0.375 -8.71875 L 0.375 -11.828125 Z M 2.078125 -11.828125 "/></g></g></g><g fill="#848def" fill-opacity="1"><g transform="translate(279.348802, 321.755679)"><g><path d="M 13.359375 -5.34375 L 4.78125 -5.34375 C 4.78125 -4.519531 5.046875 -3.90625 5.578125 -3.5 C 6.117188 -3.101562 6.703125 -2.90625 7.328125 -2.90625 C 7.992188 -2.90625 8.519531 -2.992188 8.90625 -3.171875 C 9.289062 -3.347656 9.726562 -3.695312 10.21875 -4.21875 L 13.171875 -2.75 C 11.941406 -0.6875 9.894531 0.34375 7.03125 0.34375 C 5.25 0.34375 3.71875 -0.265625 2.4375 -1.484375 C 1.164062 -2.710938 0.53125 -4.1875 0.53125 -5.90625 C 0.53125 -7.625 1.164062 -9.097656 2.4375 -10.328125 C 3.71875 -11.554688 5.25 -12.171875 7.03125 -12.171875 C 8.90625 -12.171875 10.429688 -11.628906 11.609375 -10.546875 C 12.785156 -9.460938 13.375 -7.914062 13.375 -5.90625 C 13.375 -5.625 13.367188 -5.4375 13.359375 -5.34375 Z M 4.890625 -7.609375 L 9.390625 -7.609375 C 9.296875 -8.222656 9.050781 -8.695312 8.65625 -9.03125 C 8.269531 -9.363281 7.769531 -9.53125 7.15625 -9.53125 C 6.476562 -9.53125 5.9375 -9.351562 5.53125 -9 C 5.132812 -8.644531 4.921875 -8.179688 4.890625 -7.609375 Z M 4.890625 -7.609375 "/></g></g></g><g fill="#848def" fill-opacity="1"><g transform="translate(293.25641, 321.755679)"><g><path d="M 1.390625 0 L 1.390625 -11.828125 L 5.46875 -11.828125 L 5.46875 -10.125 L 5.515625 -10.125 C 5.546875 -10.1875 5.59375 -10.265625 5.65625 -10.359375 C 5.726562 -10.453125 5.878906 -10.613281 6.109375 -10.84375 C 6.335938 -11.070312 6.582031 -11.273438 6.84375 -11.453125 C 7.101562 -11.640625 7.441406 -11.804688 7.859375 -11.953125 C 8.273438 -12.097656 8.695312 -12.171875 9.125 -12.171875 C 9.570312 -12.171875 10.007812 -12.109375 10.4375 -11.984375 C 10.875 -11.867188 11.191406 -11.75 11.390625 -11.625 L 11.71875 -11.4375 L 10.015625 -7.984375 C 9.503906 -8.410156 8.796875 -8.625 7.890625 -8.625 C 7.398438 -8.625 6.976562 -8.515625 6.625 -8.296875 C 6.269531 -8.085938 6.019531 -7.828125 5.875 -7.515625 C 5.726562 -7.210938 5.625 -6.953125 5.5625 -6.734375 C 5.5 -6.515625 5.46875 -6.347656 5.46875 -6.234375 L 5.46875 0 Z M 1.390625 0 "/></g></g></g></svg>