<svg xmlns="http://www.w3.org/2000/svg" xmlns:xlink="http://www.w3.org/1999/xlink" width="500" zoomAndPan="magnify" viewBox="0 0 375 374.999991" height="500" preserveAspectRatio="xMidYMid meet" version="1.0"><defs><g/></defs><path fill="#848def" d="M 138.65625 77.058594 L 284.992188 77.058594 C 285.664062 77.058594 286.335938 77.09375 287.007812 77.160156 C 287.675781 77.222656 288.34375 77.324219 289.003906 77.453125 C 289.664062 77.585938 290.316406 77.75 290.960938 77.945312 C 291.605469 78.140625 292.238281 78.367188 292.859375 78.625 C 293.484375 78.882812 294.089844 79.167969 294.683594 79.488281 C 295.277344 79.804688 295.855469 80.152344 296.414062 80.523438 C 296.976562 80.898438 297.515625 81.300781 298.035156 81.726562 C 298.558594 82.152344 299.054688 82.605469 299.53125 83.082031 C 300.007812 83.558594 300.460938 84.058594 300.886719 84.578125 C 301.316406 85.097656 301.714844 85.636719 302.089844 86.199219 C 302.464844 86.757812 302.808594 87.335938 303.125 87.929688 C 303.445312 88.523438 303.730469 89.132812 303.988281 89.753906 C 304.246094 90.375 304.472656 91.007812 304.667969 91.652344 C 304.863281 92.296875 305.027344 92.949219 305.160156 93.609375 C 305.292969 94.269531 305.390625 94.9375 305.457031 95.605469 C 305.523438 96.277344 305.554688 96.949219 305.554688 97.621094 L 305.554688 170.6875 C 305.554688 171.359375 305.523438 172.03125 305.457031 172.703125 C 305.390625 173.371094 305.292969 174.035156 305.160156 174.699219 C 305.027344 175.359375 304.863281 176.011719 304.667969 176.65625 C 304.472656 177.300781 304.246094 177.933594 303.988281 178.554688 C 303.730469 179.175781 303.445312 179.785156 303.125 180.378906 C 302.808594 180.972656 302.464844 181.550781 302.089844 182.109375 C 301.714844 182.671875 301.316406 183.210938 300.886719 183.730469 C 300.460938 184.25 300.007812 184.75 299.53125 185.226562 C 299.054688 185.703125 298.558594 186.15625 298.035156 186.582031 C 297.515625 187.007812 296.976562 187.410156 296.414062 187.785156 C 295.855469 188.15625 295.277344 188.503906 294.683594 188.820312 C 294.089844 189.136719 293.484375 189.425781 292.859375 189.683594 C 292.238281 189.941406 291.605469 190.167969 290.960938 190.363281 C 290.316406 190.558594 289.664062 190.722656 289.003906 190.855469 C 288.34375 190.984375 287.675781 191.085938 287.007812 191.148438 C 286.335938 191.214844 285.664062 191.25 284.992188 191.25 L 138.65625 191.25 C 137.980469 191.25 137.308594 191.214844 136.640625 191.148438 C 135.96875 191.085938 135.304688 190.984375 134.644531 190.855469 C 133.980469 190.722656 133.328125 190.558594 132.683594 190.363281 C 132.039062 190.167969 131.40625 189.941406 130.785156 189.683594 C 130.164062 189.425781 129.554688 189.136719 128.960938 188.820312 C 128.367188 188.503906 127.789062 188.15625 127.230469 187.785156 C 126.671875 187.410156 126.128906 187.007812 125.609375 186.582031 C 125.089844 186.15625 124.589844 185.703125 124.113281 185.226562 C 123.636719 184.75 123.1875 184.25 122.757812 183.730469 C 122.332031 183.210938 121.929688 182.671875 121.558594 182.109375 C 121.183594 181.550781 120.835938 180.972656 120.519531 180.378906 C 120.203125 179.785156 119.914062 179.175781 119.65625 178.554688 C 119.398438 177.933594 119.171875 177.300781 118.976562 176.65625 C 118.78125 176.011719 118.617188 175.359375 118.488281 174.699219 C 118.355469 174.035156 118.257812 173.371094 118.191406 172.703125 C 118.125 172.03125 118.089844 171.359375 118.089844 170.6875 L 118.089844 97.621094 C 118.089844 96.949219 118.125 96.277344 118.191406 95.605469 C 118.257812 94.9375 118.355469 94.269531 118.488281 93.609375 C 118.617188 92.949219 118.78125 92.296875 118.976562 91.652344 C 119.171875 91.007812 119.398438 90.375 119.65625 89.753906 C 119.914062 89.132812 120.203125 88.523438 120.519531 87.929688 C 120.835938 87.335938 121.183594 86.757812 121.558594 86.199219 C 121.929688 85.636719 122.332031 85.097656 122.757812 84.578125 C 123.1875 84.058594 123.636719 83.558594 124.113281 83.082031 C 124.589844 82.605469 125.089844 82.152344 125.609375 81.726562 C 126.128906 81.300781 126.671875 80.898438 127.230469 80.523438 C 127.789062 80.152344 128.367188 79.804688 128.960938 79.488281 C 129.554688 79.167969 130.164062 78.882812 130.785156 78.625 C 131.40625 78.367188 132.039062 78.140625 132.683594 77.945312 C 133.328125 77.75 133.980469 77.585938 134.644531 77.453125 C 135.304688 77.324219 135.96875 77.222656 136.640625 77.160156 C 137.308594 77.09375 137.980469 77.058594 138.65625 77.058594 Z M 138.65625 77.058594 " fill-opacity="1" fill-rule="nonzero"/><path fill="#848def" d="M 166.09375 219.289062 L 179.421875 189.640625 L 143.574219 189.640625 L 156.902344 219.289062 C 158.683594 223.25 164.308594 223.25 166.089844 219.289062 Z M 166.09375 219.289062 " fill-opacity="1" fill-rule="nonzero"/><path fill="#ffffff" d="M 211.824219 93.695312 C 189.515625 93.695312 171.363281 111.847656 171.363281 134.15625 C 171.363281 156.464844 189.515625 174.617188 211.824219 174.617188 C 234.132812 174.617188 252.28125 156.464844 252.28125 134.15625 C 252.28125 111.847656 234.132812 93.695312 211.824219 93.695312 Z M 235.75 134.15625 C 235.75 136.074219 235.652344 137.972656 235.460938 139.832031 C 231.824219 140.566406 227.710938 141.121094 223.3125 141.472656 C 223.425781 139.082031 223.484375 136.636719 223.484375 134.15625 C 223.484375 131.675781 223.425781 129.230469 223.3125 126.839844 C 227.710938 127.191406 231.820312 127.746094 235.460938 128.480469 C 235.652344 130.339844 235.75 132.238281 235.75 134.15625 Z M 187.890625 134.15625 C 187.890625 132.238281 187.988281 130.339844 188.179688 128.480469 C 191.816406 127.746094 195.929688 127.191406 200.332031 126.839844 C 200.214844 129.230469 200.15625 131.675781 200.15625 134.15625 C 200.15625 136.636719 200.214844 139.082031 200.332031 141.472656 C 195.929688 141.121094 191.820312 140.566406 188.179688 139.832031 C 187.988281 137.972656 187.890625 136.074219 187.890625 134.15625 Z M 204.058594 134.15625 C 204.058594 131.582031 204.125 129.046875 204.246094 126.585938 C 206.710938 126.460938 209.246094 126.398438 211.820312 126.398438 C 214.390625 126.398438 216.925781 126.460938 219.390625 126.585938 C 219.515625 129.046875 219.578125 131.582031 219.578125 134.15625 C 219.578125 136.730469 219.515625 139.265625 219.390625 141.726562 C 216.925781 141.851562 214.390625 141.914062 211.820312 141.914062 C 209.246094 141.914062 206.710938 141.851562 204.246094 141.726562 C 204.125 139.265625 204.058594 136.730469 204.058594 134.15625 Z M 223.070312 122.90625 C 222.601562 116.765625 221.757812 111.128906 220.578125 106.449219 C 219.792969 103.335938 218.898438 100.785156 217.890625 98.800781 C 221.839844 100.390625 225.480469 103.53125 228.496094 108.015625 C 231.589844 112.617188 233.765625 118.242188 234.882812 124.386719 C 231.28125 123.71875 227.296875 123.222656 223.070312 122.902344 Z M 216.792969 107.40625 C 217.886719 111.742188 218.683594 116.960938 219.132812 122.664062 C 216.746094 122.550781 214.300781 122.492188 211.820312 122.492188 C 209.335938 122.492188 206.890625 122.550781 204.503906 122.664062 C 204.953125 116.960938 205.75 111.742188 206.84375 107.40625 C 208.871094 99.363281 211.121094 97.605469 211.820312 97.605469 C 212.519531 97.605469 214.765625 99.363281 216.792969 107.40625 Z M 205.746094 98.800781 C 204.738281 100.78125 203.84375 103.328125 203.058594 106.449219 C 201.878906 111.128906 201.035156 116.765625 200.566406 122.90625 C 196.339844 123.226562 192.355469 123.722656 188.753906 124.390625 C 189.871094 118.246094 192.046875 112.621094 195.140625 108.019531 C 198.15625 103.53125 201.796875 100.394531 205.746094 98.804688 Z M 184.171875 138.894531 C 176.894531 136.929688 175.261719 134.824219 175.261719 134.15625 C 175.261719 133.488281 176.894531 131.382812 184.171875 129.417969 C 184.050781 130.980469 183.984375 132.5625 183.984375 134.15625 C 183.984375 135.75 184.050781 137.332031 184.171875 138.894531 Z M 200.566406 145.402344 C 201.035156 151.542969 201.878906 157.179688 203.058594 161.859375 C 203.84375 164.972656 204.738281 167.523438 205.746094 169.507812 C 201.796875 167.917969 198.15625 164.777344 195.140625 160.292969 C 192.046875 155.691406 189.871094 150.066406 188.753906 143.921875 C 192.355469 144.589844 196.339844 145.085938 200.566406 145.40625 Z M 206.84375 160.902344 C 205.75 156.566406 204.953125 151.347656 204.503906 145.644531 C 206.890625 145.757812 209.335938 145.816406 211.820312 145.816406 C 214.300781 145.816406 216.746094 145.757812 219.132812 145.644531 C 218.683594 151.347656 217.886719 156.566406 216.792969 160.902344 C 214.765625 168.945312 212.519531 170.703125 211.820312 170.703125 C 211.121094 170.703125 208.871094 168.945312 206.84375 160.902344 Z M 217.890625 169.507812 C 218.898438 167.527344 219.792969 164.976562 220.578125 161.859375 C 221.757812 157.179688 222.601562 151.542969 223.070312 145.402344 C 227.296875 145.082031 231.28125 144.585938 234.882812 143.917969 C 233.765625 150.0625 231.589844 155.6875 228.496094 160.289062 C 225.480469 164.777344 221.839844 167.914062 217.890625 169.503906 Z M 239.464844 129.414062 C 246.742188 131.378906 248.375 133.484375 248.375 134.152344 C 248.375 134.820312 246.742188 136.925781 239.464844 138.890625 C 239.589844 137.328125 239.652344 135.746094 239.652344 134.152344 C 239.652344 132.558594 239.589844 130.976562 239.464844 129.414062 Z M 247.9375 128.488281 C 245.867188 127.320312 243.0625 126.289062 239.527344 125.398438 C 239.351562 125.351562 239.167969 125.308594 238.988281 125.265625 C 237.878906 117.980469 235.398438 111.277344 231.746094 105.839844 C 230.691406 104.269531 229.566406 102.851562 228.378906 101.570312 C 238.628906 106.796875 246.105469 116.722656 247.941406 128.488281 Z M 195.273438 101.570312 C 194.082031 102.851562 192.957031 104.269531 191.902344 105.839844 C 188.25 111.277344 185.773438 117.976562 184.660156 125.265625 C 184.480469 125.308594 184.300781 125.351562 184.121094 125.398438 C 180.585938 126.289062 177.785156 127.320312 175.714844 128.488281 C 177.550781 116.722656 185.027344 106.796875 195.277344 101.570312 Z M 175.710938 139.824219 C 177.78125 140.992188 180.585938 142.023438 184.117188 142.917969 C 184.296875 142.960938 184.480469 143.003906 184.65625 143.050781 C 185.765625 150.332031 188.25 157.035156 191.898438 162.472656 C 192.949219 164.042969 194.078125 165.460938 195.265625 166.742188 C 185.019531 161.515625 177.542969 151.589844 175.703125 139.824219 Z M 228.375 166.742188 C 229.5625 165.460938 230.691406 164.042969 231.742188 162.472656 C 235.398438 157.035156 237.875 150.335938 238.984375 143.050781 C 239.167969 143.003906 239.347656 142.960938 239.523438 142.917969 C 243.0625 142.023438 245.863281 140.992188 247.933594 139.824219 C 246.09375 151.589844 238.621094 161.515625 228.371094 166.742188 Z M 228.375 166.742188 " fill-opacity="1" fill-rule="nonzero"/><path fill="#ffffff" d="M 175.5625 171.3125 C 175.308594 171.3125 175.046875 171.246094 174.808594 171.121094 C 161.238281 163.75 152.804688 149.582031 152.804688 134.152344 C 152.804688 118.71875 161.527344 104.046875 175.554688 96.785156 C 176.332031 96.382812 177.289062 96.691406 177.691406 97.46875 C 178.09375 98.242188 177.792969 99.203125 177.011719 99.605469 C 164.039062 106.320312 155.976562 119.554688 155.976562 134.152344 C 155.976562 148.746094 163.773438 161.515625 176.320312 168.332031 C 177.09375 168.753906 177.378906 169.710938 176.957031 170.484375 C 176.667969 171.015625 176.125 171.316406 175.5625 171.316406 Z M 175.5625 171.3125 " fill-opacity="1" fill-rule="nonzero"/><path fill="#ffffff" d="M 248.082031 171.3125 C 247.519531 171.3125 246.972656 171.011719 246.6875 170.480469 C 246.269531 169.707031 246.558594 168.75 247.324219 168.328125 C 259.871094 161.511719 267.667969 148.414062 267.667969 134.148438 C 267.667969 119.882812 259.609375 106.3125 246.632812 99.601562 C 245.859375 99.199219 245.550781 98.238281 245.953125 97.460938 C 246.355469 96.6875 247.316406 96.378906 248.09375 96.78125 C 262.125 104.042969 270.839844 118.359375 270.839844 134.148438 C 270.839844 149.933594 262.410156 163.746094 248.835938 171.117188 C 248.59375 171.246094 248.339844 171.308594 248.082031 171.308594 Z M 248.082031 171.3125 " fill-opacity="1" fill-rule="nonzero"/><path fill="#ffffff" d="M 273.863281 163.554688 C 273.632812 163.554688 273.398438 163.488281 273.1875 163.355469 C 272.59375 162.980469 272.417969 162.199219 272.789062 161.605469 C 277.445312 154.222656 280.011719 144.46875 280.011719 134.152344 C 280.011719 123.171875 277.011719 112.609375 271.785156 105.183594 C 271.382812 104.613281 271.519531 103.820312 272.089844 103.417969 C 272.664062 103.015625 273.457031 103.152344 273.859375 103.722656 C 279.382812 111.570312 282.550781 122.660156 282.550781 134.152344 C 282.550781 144.945312 279.851562 155.175781 274.941406 162.957031 C 274.699219 163.34375 274.289062 163.554688 273.871094 163.554688 Z M 273.863281 163.554688 " fill-opacity="1" fill-rule="nonzero"/><path fill="#ffffff" d="M 149.78125 163.554688 C 149.359375 163.554688 148.949219 163.34375 148.707031 162.957031 C 143.800781 155.175781 141.097656 144.945312 141.097656 134.152344 C 141.097656 122.660156 144.265625 111.570312 149.789062 103.722656 C 150.191406 103.148438 150.988281 103.011719 151.558594 103.417969 C 152.128906 103.824219 152.273438 104.613281 151.867188 105.183594 C 146.636719 112.609375 143.640625 123.171875 143.640625 134.152344 C 143.640625 144.46875 146.203125 154.222656 150.859375 161.605469 C 151.234375 162.199219 151.054688 162.980469 150.460938 163.355469 C 150.253906 163.488281 150.019531 163.554688 149.785156 163.554688 Z M 149.78125 163.554688 " fill-opacity="1" fill-rule="nonzero"/><g fill="#848def" fill-opacity="1"><g transform="translate(119.402253, 258.949274)"><g><path d="M 15.890625 -24.640625 L 15.890625 -19.703125 L 7.40625 -19.703125 L 7.40625 -14.8125 L 15.53125 -14.8125 L 15.53125 -9.890625 L 7.40625 -9.890625 L 7.40625 -4.921875 L 15.890625 -4.921875 L 15.890625 0 L 1.796875 0 L 1.796875 -24.640625 Z M 15.890625 -24.640625 "/></g></g></g><g fill="#848def" fill-opacity="1"><g transform="translate(136.713878, 258.949274)"><g><path d="M 7.40625 -15.28125 L 7.40625 0 L 1.796875 0 L 1.796875 -24.640625 L 7.40625 -24.640625 L 17.203125 -9.34375 L 17.265625 -9.34375 L 17.265625 -24.640625 L 22.875 -24.640625 L 22.875 0 L 17.265625 0 L 7.46875 -15.28125 Z M 7.40625 -15.28125 "/></g></g></g><g fill="#848def" fill-opacity="1"><g transform="translate(161.368009, 258.949274)"><g><path d="M 24.0625 -13.796875 L 24.0625 -8.453125 C 23.425781 -5.523438 22.03125 -3.304688 19.875 -1.796875 C 17.726562 -0.296875 15.332031 0.453125 12.6875 0.453125 C 9.363281 0.453125 6.53125 -0.789062 4.1875 -3.28125 C 1.851562 -5.769531 0.6875 -8.773438 0.6875 -12.296875 C 0.6875 -15.878906 1.828125 -18.90625 4.109375 -21.375 C 6.398438 -23.84375 9.257812 -25.078125 12.6875 -25.078125 C 16.6875 -25.078125 19.851562 -23.675781 22.1875 -20.875 L 18.515625 -16.84375 C 17.203125 -18.945312 15.367188 -20 13.015625 -20 C 11.285156 -20 9.804688 -19.25 8.578125 -17.75 C 7.359375 -16.25 6.75 -14.429688 6.75 -12.296875 C 6.75 -10.210938 7.359375 -8.425781 8.578125 -6.9375 C 9.804688 -5.457031 11.285156 -4.71875 13.015625 -4.71875 C 14.453125 -4.71875 15.703125 -5.148438 16.765625 -6.015625 C 17.828125 -6.878906 18.359375 -8.03125 18.359375 -9.46875 L 12.6875 -9.46875 L 12.6875 -13.796875 Z M 24.0625 -13.796875 "/></g></g></g><g fill="#848def" fill-opacity="1"><g transform="translate(186.111691, 258.949274)"><g><path d="M 7.40625 -24.640625 L 7.40625 -4.921875 L 15.890625 -4.921875 L 15.890625 0 L 1.796875 0 L 1.796875 -24.640625 Z M 7.40625 -24.640625 "/></g></g></g><g fill="#848def" fill-opacity="1"><g transform="translate(202.9756, 258.949274)"><g><path d="M 7.40625 -24.640625 L 7.40625 0 L 1.796875 0 L 1.796875 -24.640625 Z M 7.40625 -24.640625 "/></g></g></g><g fill="#848def" fill-opacity="1"><g transform="translate(212.168673, 258.949274)"><g><path d="M 10.875 -25.078125 C 12.207031 -25.078125 13.507812 -24.882812 14.78125 -24.5 C 16.050781 -24.113281 16.992188 -23.726562 17.609375 -23.34375 L 18.515625 -22.75 L 16.25 -18.28125 C 16.0625 -18.394531 15.804688 -18.546875 15.484375 -18.734375 C 15.171875 -18.921875 14.578125 -19.171875 13.703125 -19.484375 C 12.828125 -19.804688 12.007812 -19.96875 11.25 -19.96875 C 10.320312 -19.96875 9.601562 -19.769531 9.09375 -19.375 C 8.582031 -18.976562 8.328125 -18.441406 8.328125 -17.765625 C 8.328125 -17.429688 8.445312 -17.117188 8.6875 -16.828125 C 8.925781 -16.535156 9.332031 -16.222656 9.90625 -15.890625 C 10.488281 -15.566406 11 -15.304688 11.4375 -15.109375 C 11.875 -14.910156 12.550781 -14.613281 13.46875 -14.21875 C 15.0625 -13.539062 16.421875 -12.617188 17.546875 -11.453125 C 18.671875 -10.285156 19.234375 -8.96875 19.234375 -7.5 C 19.234375 -6.082031 18.976562 -4.84375 18.46875 -3.78125 C 17.957031 -2.726562 17.257812 -1.90625 16.375 -1.3125 C 15.488281 -0.71875 14.507812 -0.273438 13.4375 0.015625 C 12.363281 0.304688 11.195312 0.453125 9.9375 0.453125 C 8.863281 0.453125 7.804688 0.34375 6.765625 0.125 C 5.734375 -0.09375 4.867188 -0.363281 4.171875 -0.6875 C 3.484375 -1.019531 2.859375 -1.347656 2.296875 -1.671875 C 1.742188 -1.992188 1.335938 -2.265625 1.078125 -2.484375 L 0.6875 -2.8125 L 3.5 -7.53125 C 3.738281 -7.320312 4.066406 -7.0625 4.484375 -6.75 C 4.898438 -6.445312 5.640625 -6.035156 6.703125 -5.515625 C 7.765625 -5.003906 8.707031 -4.75 9.53125 -4.75 C 11.894531 -4.75 13.078125 -5.554688 13.078125 -7.171875 C 13.078125 -7.503906 12.992188 -7.816406 12.828125 -8.109375 C 12.660156 -8.398438 12.359375 -8.6875 11.921875 -8.96875 C 11.492188 -9.257812 11.113281 -9.488281 10.78125 -9.65625 C 10.457031 -9.820312 9.921875 -10.078125 9.171875 -10.421875 C 8.429688 -10.773438 7.882812 -11.046875 7.53125 -11.234375 C 6.03125 -11.960938 4.875 -12.878906 4.0625 -13.984375 C 3.25 -15.085938 2.84375 -16.28125 2.84375 -17.5625 C 2.84375 -19.769531 3.65625 -21.570312 5.28125 -22.96875 C 6.914062 -24.375 8.78125 -25.078125 10.875 -25.078125 Z M 10.875 -25.078125 "/></g></g></g><g fill="#848def" fill-opacity="1"><g transform="translate(232.226273, 258.949274)"><g><path d="M 7.40625 -9.890625 L 7.40625 0 L 1.796875 0 L 1.796875 -24.640625 L 7.40625 -24.640625 L 7.40625 -14.8125 L 15.34375 -14.8125 L 15.34375 -24.640625 L 20.96875 -24.640625 L 20.96875 0 L 15.34375 0 L 15.34375 -9.890625 Z M 7.40625 -9.890625 "/></g></g></g><g fill="#848def" fill-opacity="1"><g transform="translate(254.970157, 258.949274)"><g/></g></g><g fill="#848def" fill-opacity="1"><g transform="translate(263.118555, 258.949274)"><g><path d="M 16.625 -10.125 L 19.5 -10.125 L 19.5 -5.203125 L 16.625 -5.203125 L 16.625 0 L 11.375 0 L 11.375 -5.203125 L -0.75 -5.203125 L -0.75 -6.875 L 11.078125 -24.640625 L 16.625 -24.640625 Z M 11.375 -17.140625 L 11.3125 -17.140625 L 6.921875 -10.125 L 11.375 -10.125 Z M 11.375 -17.140625 "/></g></g></g><g fill="#848def" fill-opacity="1"><g transform="translate(282.997067, 258.949274)"><g><path d="M 20.71875 -24.640625 L 20.71875 -8.75 C 20.71875 -5.71875 19.898438 -3.425781 18.265625 -1.875 C 16.640625 -0.320312 14.253906 0.453125 11.109375 0.453125 C 7.960938 0.453125 5.570312 -0.320312 3.9375 -1.875 C 2.3125 -3.425781 1.5 -5.71875 1.5 -8.75 L 1.5 -24.640625 L 7.109375 -24.640625 L 7.109375 -10.390625 C 7.109375 -8.398438 7.421875 -7.015625 8.046875 -6.234375 C 8.671875 -5.460938 9.691406 -5.078125 11.109375 -5.078125 C 12.523438 -5.078125 13.546875 -5.460938 14.171875 -6.234375 C 14.796875 -7.015625 15.109375 -8.398438 15.109375 -10.390625 L 15.109375 -24.640625 Z M 20.71875 -24.640625 "/></g></g></g><path stroke-linecap="round" transform="matrix(0, -0.75, 0.75, 0, 82.579869, 309.960097)" fill="none" stroke-linejoin="miter" d="M 9.99888 9.997676 L 301.243691 9.997676 " stroke="#848def" stroke-width="20" stroke-opacity="1" stroke-miterlimit="4"/><g fill="#848def" fill-opacity="1"><g transform="translate(148.795864, 281.363096)"><g><path d="M 11.875 0 L 11.25 -7.828125 L 11.171875 -7.828125 L 8.46875 -0.078125 L 6.671875 -0.078125 L 3.96875 -7.828125 L 3.890625 -7.828125 L 3.265625 0 L 0.25 0 L 1.4375 -13.203125 L 4.640625 -13.203125 L 7.5625 -5.578125 L 10.5 -13.203125 L 13.703125 -13.203125 L 14.875 0 Z M 11.875 0 "/></g></g></g><g fill="#848def" fill-opacity="1"><g transform="translate(163.928226, 281.363096)"><g><path d="M 1.515625 -1.015625 C 0.753906 -1.847656 0.375 -2.875 0.375 -4.09375 C 0.375 -5.3125 0.753906 -6.34375 1.515625 -7.1875 C 2.285156 -8.03125 3.265625 -8.453125 4.453125 -8.453125 C 5.535156 -8.453125 6.429688 -8.109375 7.140625 -7.421875 L 7.140625 -8.203125 L 9.96875 -8.203125 L 9.96875 0 L 7.171875 0 L 7.171875 -0.921875 L 7.140625 -0.921875 C 6.429688 -0.148438 5.535156 0.234375 4.453125 0.234375 C 3.265625 0.234375 2.285156 -0.179688 1.515625 -1.015625 Z M 3.921875 -5.484375 C 3.554688 -5.117188 3.375 -4.65625 3.375 -4.09375 C 3.375 -3.53125 3.550781 -3.066406 3.90625 -2.703125 C 4.257812 -2.347656 4.722656 -2.171875 5.296875 -2.171875 C 5.847656 -2.171875 6.300781 -2.351562 6.65625 -2.71875 C 7.019531 -3.082031 7.203125 -3.539062 7.203125 -4.09375 C 7.203125 -4.65625 7.015625 -5.117188 6.640625 -5.484375 C 6.273438 -5.847656 5.828125 -6.03125 5.296875 -6.03125 C 4.753906 -6.03125 4.296875 -5.847656 3.921875 -5.484375 Z M 3.921875 -5.484375 "/></g></g></g><g fill="#848def" fill-opacity="1"><g transform="translate(174.853602, 281.363096)"><g><path d="M 4.53125 -8.453125 C 5 -8.453125 5.460938 -8.394531 5.921875 -8.28125 C 6.378906 -8.175781 6.71875 -8.070312 6.9375 -7.96875 L 7.28125 -7.8125 L 6.359375 -5.953125 C 5.710938 -6.296875 5.101562 -6.46875 4.53125 -6.46875 C 4.207031 -6.46875 3.976562 -6.429688 3.84375 -6.359375 C 3.707031 -6.285156 3.640625 -6.15625 3.640625 -5.96875 C 3.640625 -5.925781 3.644531 -5.882812 3.65625 -5.84375 C 3.675781 -5.800781 3.703125 -5.757812 3.734375 -5.71875 C 3.765625 -5.675781 3.789062 -5.640625 3.8125 -5.609375 C 3.84375 -5.585938 3.890625 -5.5625 3.953125 -5.53125 C 4.015625 -5.5 4.0625 -5.472656 4.09375 -5.453125 C 4.132812 -5.441406 4.195312 -5.421875 4.28125 -5.390625 C 4.375 -5.359375 4.441406 -5.332031 4.484375 -5.3125 C 4.523438 -5.300781 4.59375 -5.28125 4.6875 -5.25 C 4.789062 -5.21875 4.867188 -5.195312 4.921875 -5.1875 C 5.253906 -5.09375 5.539062 -4.984375 5.78125 -4.859375 C 6.03125 -4.742188 6.289062 -4.582031 6.5625 -4.375 C 6.832031 -4.175781 7.039062 -3.921875 7.1875 -3.609375 C 7.34375 -3.304688 7.421875 -2.957031 7.421875 -2.5625 C 7.421875 -0.695312 6.125 0.234375 3.53125 0.234375 C 2.945312 0.234375 2.390625 0.144531 1.859375 -0.03125 C 1.335938 -0.207031 0.957031 -0.390625 0.71875 -0.578125 L 0.375 -0.859375 L 1.515625 -2.796875 C 1.597656 -2.722656 1.707031 -2.632812 1.84375 -2.53125 C 1.988281 -2.4375 2.242188 -2.300781 2.609375 -2.125 C 2.972656 -1.945312 3.285156 -1.859375 3.546875 -1.859375 C 4.140625 -1.859375 4.4375 -2.054688 4.4375 -2.453125 C 4.4375 -2.628906 4.359375 -2.769531 4.203125 -2.875 C 4.054688 -2.976562 3.800781 -3.09375 3.4375 -3.21875 C 3.082031 -3.34375 2.804688 -3.457031 2.609375 -3.5625 C 2.097656 -3.832031 1.691406 -4.132812 1.390625 -4.46875 C 1.085938 -4.800781 0.9375 -5.25 0.9375 -5.8125 C 0.9375 -6.644531 1.257812 -7.289062 1.90625 -7.75 C 2.550781 -8.21875 3.425781 -8.453125 4.53125 -8.453125 Z M 4.53125 -8.453125 "/></g></g></g><g fill="#848def" fill-opacity="1"><g transform="translate(182.723715, 281.363096)"><g><path d="M 1.4375 -8.203125 L 1.4375 -11.265625 L 4.265625 -11.265625 L 4.265625 -8.203125 L 6 -8.203125 L 6 -6.046875 L 4.265625 -6.046875 L 4.265625 -3.4375 C 4.265625 -2.675781 4.476562 -2.296875 4.90625 -2.296875 C 5.019531 -2.296875 5.132812 -2.316406 5.25 -2.359375 C 5.363281 -2.410156 5.453125 -2.457031 5.515625 -2.5 L 5.609375 -2.5625 L 6.3125 -0.265625 C 5.707031 0.0664062 5.015625 0.234375 4.234375 0.234375 C 3.703125 0.234375 3.242188 0.144531 2.859375 -0.03125 C 2.472656 -0.21875 2.179688 -0.46875 1.984375 -0.78125 C 1.796875 -1.101562 1.65625 -1.4375 1.5625 -1.78125 C 1.476562 -2.125 1.4375 -2.492188 1.4375 -2.890625 L 1.4375 -6.046875 L 0.25 -6.046875 L 0.25 -8.203125 Z M 1.4375 -8.203125 "/></g></g></g><g fill="#848def" fill-opacity="1"><g transform="translate(189.042192, 281.363096)"><g><path d="M 9.265625 -3.71875 L 3.3125 -3.71875 C 3.3125 -3.132812 3.5 -2.703125 3.875 -2.421875 C 4.25 -2.148438 4.65625 -2.015625 5.09375 -2.015625 C 5.550781 -2.015625 5.910156 -2.078125 6.171875 -2.203125 C 6.441406 -2.328125 6.75 -2.566406 7.09375 -2.921875 L 9.140625 -1.90625 C 8.285156 -0.476562 6.863281 0.234375 4.875 0.234375 C 3.644531 0.234375 2.585938 -0.1875 1.703125 -1.03125 C 0.816406 -1.875 0.375 -2.894531 0.375 -4.09375 C 0.375 -5.289062 0.816406 -6.316406 1.703125 -7.171875 C 2.585938 -8.023438 3.644531 -8.453125 4.875 -8.453125 C 6.175781 -8.453125 7.234375 -8.070312 8.046875 -7.3125 C 8.867188 -6.5625 9.28125 -5.488281 9.28125 -4.09375 C 9.28125 -3.90625 9.273438 -3.78125 9.265625 -3.71875 Z M 3.390625 -5.28125 L 6.515625 -5.28125 C 6.453125 -5.707031 6.28125 -6.035156 6 -6.265625 C 5.726562 -6.492188 5.378906 -6.609375 4.953125 -6.609375 C 4.484375 -6.609375 4.109375 -6.484375 3.828125 -6.234375 C 3.554688 -5.992188 3.410156 -5.675781 3.390625 -5.28125 Z M 3.390625 -5.28125 "/></g></g></g><g fill="#848def" fill-opacity="1"><g transform="translate(198.687878, 281.363096)"><g><path d="M 0.953125 0 L 0.953125 -8.203125 L 3.796875 -8.203125 L 3.796875 -7.03125 L 3.828125 -7.03125 C 3.847656 -7.070312 3.878906 -7.125 3.921875 -7.1875 C 3.972656 -7.25 4.078125 -7.359375 4.234375 -7.515625 C 4.398438 -7.679688 4.570312 -7.828125 4.75 -7.953125 C 4.9375 -8.078125 5.171875 -8.191406 5.453125 -8.296875 C 5.742188 -8.398438 6.039062 -8.453125 6.34375 -8.453125 C 6.644531 -8.453125 6.945312 -8.40625 7.25 -8.3125 C 7.550781 -8.226562 7.769531 -8.144531 7.90625 -8.0625 L 8.125 -7.9375 L 6.9375 -5.53125 C 6.59375 -5.832031 6.101562 -5.984375 5.46875 -5.984375 C 5.125 -5.984375 4.828125 -5.90625 4.578125 -5.75 C 4.335938 -5.601562 4.164062 -5.421875 4.0625 -5.203125 C 3.96875 -4.992188 3.898438 -4.816406 3.859375 -4.671875 C 3.816406 -4.523438 3.796875 -4.40625 3.796875 -4.3125 L 3.796875 0 Z M 0.953125 0 "/></g></g></g><g fill="#848def" fill-opacity="1"><g transform="translate(206.653961, 281.363096)"><g><path d="M 7.1875 -8.203125 L 10.453125 -8.203125 L 4 4.15625 L 0.734375 4.15625 L 3.5625 -1.28125 L -0.3125 -8.203125 L 2.9375 -8.203125 L 5.234375 -4 Z M 7.1875 -8.203125 "/></g></g></g><g fill="#848def" fill-opacity="1"><g transform="translate(216.779533, 281.363096)"><g/></g></g><g fill="#848def" fill-opacity="1"><g transform="translate(221.146483, 281.363096)"><g><path d="M 7.984375 -2.71875 C 8.441406 -2.71875 8.882812 -2.785156 9.3125 -2.921875 C 9.75 -3.066406 10.066406 -3.203125 10.265625 -3.328125 L 10.578125 -3.53125 L 11.859375 -0.96875 C 11.816406 -0.9375 11.753906 -0.894531 11.671875 -0.84375 C 11.597656 -0.789062 11.425781 -0.691406 11.15625 -0.546875 C 10.882812 -0.410156 10.59375 -0.285156 10.28125 -0.171875 C 9.976562 -0.0664062 9.570312 0.0234375 9.0625 0.109375 C 8.5625 0.191406 8.046875 0.234375 7.515625 0.234375 C 6.296875 0.234375 5.132812 -0.0625 4.03125 -0.65625 C 2.9375 -1.257812 2.050781 -2.085938 1.375 -3.140625 C 0.707031 -4.203125 0.375 -5.347656 0.375 -6.578125 C 0.375 -7.503906 0.566406 -8.394531 0.953125 -9.25 C 1.347656 -10.101562 1.875 -10.832031 2.53125 -11.4375 C 3.1875 -12.050781 3.953125 -12.535156 4.828125 -12.890625 C 5.703125 -13.253906 6.597656 -13.4375 7.515625 -13.4375 C 8.367188 -13.4375 9.15625 -13.332031 9.875 -13.125 C 10.59375 -12.925781 11.101562 -12.726562 11.40625 -12.53125 L 11.859375 -12.21875 L 10.578125 -9.65625 C 10.503906 -9.726562 10.390625 -9.804688 10.234375 -9.890625 C 10.085938 -9.984375 9.789062 -10.101562 9.34375 -10.25 C 8.894531 -10.40625 8.441406 -10.484375 7.984375 -10.484375 C 7.253906 -10.484375 6.601562 -10.363281 6.03125 -10.125 C 5.457031 -9.894531 5 -9.585938 4.65625 -9.203125 C 4.320312 -8.816406 4.066406 -8.398438 3.890625 -7.953125 C 3.710938 -7.515625 3.625 -7.066406 3.625 -6.609375 C 3.625 -5.609375 4 -4.707031 4.75 -3.90625 C 5.507812 -3.113281 6.585938 -2.71875 7.984375 -2.71875 Z M 7.984375 -2.71875 "/></g></g></g><g fill="#848def" fill-opacity="1"><g transform="translate(233.191595, 281.363096)"><g><path d="M 9.265625 -3.71875 L 3.3125 -3.71875 C 3.3125 -3.132812 3.5 -2.703125 3.875 -2.421875 C 4.25 -2.148438 4.65625 -2.015625 5.09375 -2.015625 C 5.550781 -2.015625 5.910156 -2.078125 6.171875 -2.203125 C 6.441406 -2.328125 6.75 -2.566406 7.09375 -2.921875 L 9.140625 -1.90625 C 8.285156 -0.476562 6.863281 0.234375 4.875 0.234375 C 3.644531 0.234375 2.585938 -0.1875 1.703125 -1.03125 C 0.816406 -1.875 0.375 -2.894531 0.375 -4.09375 C 0.375 -5.289062 0.816406 -6.316406 1.703125 -7.171875 C 2.585938 -8.023438 3.644531 -8.453125 4.875 -8.453125 C 6.175781 -8.453125 7.234375 -8.070312 8.046875 -7.3125 C 8.867188 -6.5625 9.28125 -5.488281 9.28125 -4.09375 C 9.28125 -3.90625 9.273438 -3.78125 9.265625 -3.71875 Z M 3.390625 -5.28125 L 6.515625 -5.28125 C 6.453125 -5.707031 6.28125 -6.035156 6 -6.265625 C 5.726562 -6.492188 5.378906 -6.609375 4.953125 -6.609375 C 4.484375 -6.609375 4.109375 -6.484375 3.828125 -6.234375 C 3.554688 -5.992188 3.410156 -5.675781 3.390625 -5.28125 Z M 3.390625 -5.28125 "/></g></g></g><g fill="#848def" fill-opacity="1"><g transform="translate(242.837282, 281.363096)"><g><path d="M 0.953125 0 L 0.953125 -8.203125 L 3.796875 -8.203125 L 3.796875 -7.34375 L 3.828125 -7.34375 C 4.554688 -8.082031 5.335938 -8.453125 6.171875 -8.453125 C 6.578125 -8.453125 6.976562 -8.394531 7.375 -8.28125 C 7.78125 -8.175781 8.164062 -8.007812 8.53125 -7.78125 C 8.90625 -7.5625 9.207031 -7.242188 9.4375 -6.828125 C 9.664062 -6.421875 9.78125 -5.945312 9.78125 -5.40625 L 9.78125 0 L 6.9375 0 L 6.9375 -4.640625 C 6.9375 -5.066406 6.800781 -5.4375 6.53125 -5.75 C 6.257812 -6.070312 5.90625 -6.234375 5.46875 -6.234375 C 5.039062 -6.234375 4.65625 -6.066406 4.3125 -5.734375 C 3.96875 -5.410156 3.796875 -5.046875 3.796875 -4.640625 L 3.796875 0 Z M 0.953125 0 "/></g></g></g><g fill="#848def" fill-opacity="1"><g transform="translate(253.410741, 281.363096)"><g><path d="M 1.4375 -8.203125 L 1.4375 -11.265625 L 4.265625 -11.265625 L 4.265625 -8.203125 L 6 -8.203125 L 6 -6.046875 L 4.265625 -6.046875 L 4.265625 -3.4375 C 4.265625 -2.675781 4.476562 -2.296875 4.90625 -2.296875 C 5.019531 -2.296875 5.132812 -2.316406 5.25 -2.359375 C 5.363281 -2.410156 5.453125 -2.457031 5.515625 -2.5 L 5.609375 -2.5625 L 6.3125 -0.265625 C 5.707031 0.0664062 5.015625 0.234375 4.234375 0.234375 C 3.703125 0.234375 3.242188 0.144531 2.859375 -0.03125 C 2.472656 -0.21875 2.179688 -0.46875 1.984375 -0.78125 C 1.796875 -1.101562 1.65625 -1.4375 1.5625 -1.78125 C 1.476562 -2.125 1.4375 -2.492188 1.4375 -2.890625 L 1.4375 -6.046875 L 0.25 -6.046875 L 0.25 -8.203125 Z M 1.4375 -8.203125 "/></g></g></g><g fill="#848def" fill-opacity="1"><g transform="translate(259.729218, 281.363096)"><g><path d="M 9.265625 -3.71875 L 3.3125 -3.71875 C 3.3125 -3.132812 3.5 -2.703125 3.875 -2.421875 C 4.25 -2.148438 4.65625 -2.015625 5.09375 -2.015625 C 5.550781 -2.015625 5.910156 -2.078125 6.171875 -2.203125 C 6.441406 -2.328125 6.75 -2.566406 7.09375 -2.921875 L 9.140625 -1.90625 C 8.285156 -0.476562 6.863281 0.234375 4.875 0.234375 C 3.644531 0.234375 2.585938 -0.1875 1.703125 -1.03125 C 0.816406 -1.875 0.375 -2.894531 0.375 -4.09375 C 0.375 -5.289062 0.816406 -6.316406 1.703125 -7.171875 C 2.585938 -8.023438 3.644531 -8.453125 4.875 -8.453125 C 6.175781 -8.453125 7.234375 -8.070312 8.046875 -7.3125 C 8.867188 -6.5625 9.28125 -5.488281 9.28125 -4.09375 C 9.28125 -3.90625 9.273438 -3.78125 9.265625 -3.71875 Z M 3.390625 -5.28125 L 6.515625 -5.28125 C 6.453125 -5.707031 6.28125 -6.035156 6 -6.265625 C 5.726562 -6.492188 5.378906 -6.609375 4.953125 -6.609375 C 4.484375 -6.609375 4.109375 -6.484375 3.828125 -6.234375 C 3.554688 -5.992188 3.410156 -5.675781 3.390625 -5.28125 Z M 3.390625 -5.28125 "/></g></g></g><g fill="#848def" fill-opacity="1"><g transform="translate(269.374904, 281.363096)"><g><path d="M 0.953125 0 L 0.953125 -8.203125 L 3.796875 -8.203125 L 3.796875 -7.03125 L 3.828125 -7.03125 C 3.847656 -7.070312 3.878906 -7.125 3.921875 -7.1875 C 3.972656 -7.25 4.078125 -7.359375 4.234375 -7.515625 C 4.398438 -7.679688 4.570312 -7.828125 4.75 -7.953125 C 4.9375 -8.078125 5.171875 -8.191406 5.453125 -8.296875 C 5.742188 -8.398438 6.039062 -8.453125 6.34375 -8.453125 C 6.644531 -8.453125 6.945312 -8.40625 7.25 -8.3125 C 7.550781 -8.226562 7.769531 -8.144531 7.90625 -8.0625 L 8.125 -7.9375 L 6.9375 -5.53125 C 6.59375 -5.832031 6.101562 -5.984375 5.46875 -5.984375 C 5.125 -5.984375 4.828125 -5.90625 4.578125 -5.75 C 4.335938 -5.601562 4.164062 -5.421875 4.0625 -5.203125 C 3.96875 -4.992188 3.898438 -4.816406 3.859375 -4.671875 C 3.816406 -4.523438 3.796875 -4.40625 3.796875 -4.3125 L 3.796875 0 Z M 0.953125 0 "/></g></g></g></svg>